<?xml version="1.0" encoding="UTF-8"?>
<svg xmlns="http://www.w3.org/2000/svg" width="512" height="512" viewBox="0 0 512 512">
  <defs>
    <radialGradient id="badge" cx="38%" cy="30%" r="78%">
      <stop offset="0" stop-color="#303030"/>
      <stop offset="0.62" stop-color="#171717"/>
      <stop offset="1" stop-color="#090909"/>
    </radialGradient>
    <linearGradient id="deck" x1="80" y1="138" x2="438" y2="340" gradientUnits="userSpaceOnUse">
      <stop stop-color="#3b3b3b"/>
      <stop offset="1" stop-color="#191919"/>
    </linearGradient>
    <linearGradient id="rest" x1="256" y1="317" x2="256" y2="426" gradientUnits="userSpaceOnUse">
      <stop stop-color="#252525"/>
      <stop offset="1" stop-color="#111111"/>
    </linearGradient>
    <linearGradient id="display" x1="370" y1="153" x2="430" y2="173" gradientUnits="userSpaceOnUse">
      <stop stop-color="#c4c4c4"/>
      <stop offset="0.5" stop-color="#f5f5f5"/>
      <stop offset="1" stop-color="#8c8c8c"/>
    </linearGradient>
  </defs>

  <circle cx="256" cy="256" r="238" fill="#0b0b0b" stroke="#d44a62" stroke-width="12"/>
  <circle cx="256" cy="256" r="222" fill="url(#badge)" stroke="#ededed" stroke-width="4"/>
  <path d="M86 117A211 211 0 0 1 390 77" fill="none" stroke="#ffffff" stroke-opacity="0.14" stroke-width="8" stroke-linecap="round"/>

  <g>
    <g transform="translate(256 256) scale(0.86) translate(-256 -256) rotate(-11 256 262)">
      <path d="M42 150Q42 129 63 129H449Q470 129 470 150V320Q470 338 452 338H60Q42 338 42 320Z" fill="url(#deck)" stroke="#eeeeee" stroke-width="7"/>
      <path d="M48 315H464L449 417Q447 430 433 430H80Q65 430 63 416Z" fill="url(#rest)" stroke="#eeeeee" stroke-width="7"/>
      <path d="M66 326H446" stroke="#d44a62" stroke-width="5" stroke-linecap="round"/>

      <g fill="#101010" stroke="#e34848" stroke-width="2.6">
        <rect x="62" y="148" width="20" height="17" rx="3" stroke-width="2.2"/>
        <rect x="88" y="148" width="20" height="17" rx="3" stroke-width="2.2"/>
        <rect x="114" y="148" width="20" height="17" rx="3" stroke-width="2.2"/>
        <rect x="60" y="183" width="26" height="23" rx="4"/>
        <rect x="60" y="213" width="26" height="23" rx="4"/>
        <rect x="60" y="243" width="26" height="23" rx="4"/>
        <rect x="60" y="273" width="26" height="23" rx="4"/>
        <rect x="90" y="183" width="26" height="23" rx="4"/>
        <rect x="90" y="213" width="26" height="23" rx="4"/>
        <rect x="90" y="243" width="26" height="23" rx="4"/>
        <rect x="90" y="273" width="26" height="23" rx="4"/>
      </g>
      <g fill="#101010" stroke="#e9a62b" stroke-width="2.6">
        <rect x="148" y="148" width="20" height="17" rx="3" stroke-width="2.2"/>
        <rect x="174" y="148" width="20" height="17" rx="3" stroke-width="2.2"/>
        <rect x="120" y="183" width="26" height="23" rx="4"/>
        <rect x="120" y="213" width="26" height="23" rx="4"/>
        <rect x="120" y="243" width="26" height="23" rx="4"/>
        <rect x="120" y="273" width="26" height="23" rx="4"/>
        <rect x="150" y="183" width="26" height="23" rx="4"/>
        <rect x="150" y="213" width="26" height="23" rx="4"/>
        <rect x="150" y="243" width="26" height="23" rx="4"/>
        <rect x="150" y="273" width="26" height="23" rx="4"/>
      </g>
      <g fill="#101010" stroke="#55cf69" stroke-width="2.6">
        <rect x="207" y="148" width="20" height="17" rx="3" stroke-width="2.2"/>
        <rect x="233" y="148" width="20" height="17" rx="3" stroke-width="2.2"/>
        <rect x="180" y="183" width="26" height="23" rx="4"/>
        <rect x="180" y="213" width="26" height="23" rx="4"/>
        <rect x="180" y="243" width="26" height="23" rx="4"/>
        <rect x="180" y="273" width="26" height="23" rx="4"/>
        <rect x="210" y="183" width="26" height="23" rx="4"/>
        <rect x="210" y="213" width="26" height="23" rx="4"/>
        <rect x="210" y="243" width="26" height="23" rx="4"/>
        <rect x="210" y="273" width="26" height="23" rx="4"/>
      </g>
      <g fill="#101010" stroke="#36b9d8" stroke-width="2.6">
        <rect x="266" y="148" width="20" height="17" rx="3" stroke-width="2.2"/>
        <rect x="292" y="148" width="20" height="17" rx="3" stroke-width="2.2"/>
        <rect x="240" y="183" width="26" height="23" rx="4"/>
        <rect x="240" y="213" width="26" height="23" rx="4"/>
        <rect x="240" y="243" width="26" height="23" rx="4"/>
        <rect x="240" y="273" width="26" height="23" rx="4"/>
        <rect x="270" y="183" width="26" height="23" rx="4"/>
        <rect x="270" y="213" width="26" height="23" rx="4"/>
        <rect x="270" y="243" width="26" height="23" rx="4"/>
        <rect x="270" y="273" width="26" height="23" rx="4"/>
      </g>
      <g fill="#101010" stroke="#477ee9" stroke-width="2.6">
        <rect x="325" y="148" width="20" height="17" rx="3" stroke-width="2.2"/>
        <rect x="345" y="148" width="20" height="17" rx="3" stroke-width="2.2"/>
        <rect x="300" y="183" width="26" height="23" rx="4"/>
        <rect x="300" y="213" width="26" height="23" rx="4"/>
        <rect x="300" y="243" width="26" height="23" rx="4"/>
        <rect x="300" y="273" width="26" height="23" rx="4"/>
        <rect x="330" y="183" width="26" height="23" rx="4"/>
        <rect x="330" y="213" width="26" height="23" rx="4"/>
        <rect x="330" y="243" width="26" height="23" rx="4"/>
      </g>
      <g fill="#101010" stroke="#d94db9" stroke-width="2.6">
        <rect x="374" y="183" width="26" height="23" rx="4"/>
        <rect x="404" y="183" width="26" height="23" rx="4"/>
        <rect x="434" y="183" width="26" height="23" rx="4"/>
        <rect x="374" y="213" width="26" height="23" rx="4"/>
        <rect x="404" y="213" width="26" height="23" rx="4"/>
        <rect x="434" y="213" width="26" height="23" rx="4"/>
        <rect x="374" y="243" width="26" height="23" rx="4"/>
        <rect x="404" y="243" width="26" height="23" rx="4"/>
        <rect x="434" y="243" width="26" height="23" rx="4"/>
        <rect x="374" y="273" width="26" height="23" rx="4"/>
        <rect x="404" y="273" width="26" height="23" rx="4"/>
        <rect x="434" y="273" width="26" height="23" rx="4"/>
      </g>

      <rect x="180" y="303" width="118" height="18" rx="4" fill="#111111" stroke="#bdbdbd" stroke-width="2.5"/>
      <g fill="#111111" stroke="#477ee9" stroke-width="2.5">
        <rect x="304" y="303" width="26" height="18" rx="4"/>
        <rect x="334" y="303" width="26" height="18" rx="4"/>
      </g>

      <rect x="374" y="148" width="61" height="20" rx="5" fill="url(#display)" stroke="#d94db9" stroke-width="3"/>
      <path d="M378 162H431" stroke="#434343" stroke-width="3" stroke-linecap="round"/>
      <g fill="#151515" stroke="#d94db9" stroke-width="2.5">
        <circle cx="381" cy="176" r="8"/>
        <circle cx="405" cy="176" r="8"/>
        <circle cx="429" cy="176" r="8"/>
        <circle cx="453" cy="176" r="8"/>
      </g>

      <text x="337" y="283" fill="#858585" font-family="sans-serif" font-size="20" font-style="italic" font-weight="700">msi</text>
      <path d="M236 359 256 349 276 359 271 388Q267 405 256 412 245 405 241 388Z" fill="none" stroke="#686868" stroke-width="4"/>
      <path d="m246 376 10-8 10 8-6 6 6 7-10 9-10-9 6-7Z" fill="#686868"/>
    </g>
  </g>

  <circle cx="256" cy="256" r="222" fill="none" stroke="#ffffff" stroke-opacity="0.16" stroke-width="3"/>
</svg>
