<?xml version="1.0" encoding="UTF-8"?>
<svg xmlns="http://www.w3.org/2000/svg" width="512" height="512" viewBox="0 0 512 512">
  <defs>
    <linearGradient id="tile" x1="76" y1="48" x2="440" y2="472" gradientUnits="userSpaceOnUse">
      <stop stop-color="#34383f"/>
      <stop offset="0.54" stop-color="#1b1e23"/>
      <stop offset="1" stop-color="#0d0f12"/>
    </linearGradient>
    <linearGradient id="deck" x1="18" y1="18" x2="420" y2="205" gradientUnits="userSpaceOnUse">
      <stop stop-color="#41454b"/>
      <stop offset="1" stop-color="#181a1e"/>
    </linearGradient>
    <linearGradient id="rest" x1="220" y1="184" x2="220" y2="306" gradientUnits="userSpaceOnUse">
      <stop stop-color="#282b30"/>
      <stop offset="1" stop-color="#111317"/>
    </linearGradient>
    <filter id="shadow" x="-20%" y="-20%" width="140%" height="150%">
      <feDropShadow dx="0" dy="12" stdDeviation="12" flood-color="#000000" flood-opacity="0.48"/>
    </filter>
    <rect id="key" width="25" height="21" rx="4" fill="#111318" stroke-width="2.8"/>
    <rect id="small-key" width="20" height="15" rx="3" fill="#111318" stroke-width="2.4"/>
  </defs>

  <rect x="18" y="18" width="476" height="476" rx="108" fill="#090a0c" opacity="0.5"/>
  <rect x="18" y="12" width="476" height="476" rx="108" fill="url(#tile)" stroke="#ffffff" stroke-opacity="0.2" stroke-width="4"/>
  <path d="M74 68Q150 20 256 20T438 76" fill="none" stroke="#ffffff" stroke-opacity="0.13" stroke-width="9" stroke-linecap="round"/>
  <path d="M92 448H420" stroke="#df4e67" stroke-width="9" stroke-linecap="round" opacity="0.88"/>

  <g transform="translate(36 104) rotate(-11 220 152)" filter="url(#shadow)">
    <path d="M10 30Q10 10 31 10H409Q430 10 430 30V199Q430 218 411 218H29Q10 218 10 199Z" fill="url(#deck)" stroke="#f2f3f5" stroke-width="7"/>
    <path d="M18 199H422L406 292Q403 306 388 306H51Q36 306 33 292Z" fill="url(#rest)" stroke="#f2f3f5" stroke-width="7"/>
    <path d="M27 209H413" stroke="#df4e67" stroke-width="5" stroke-linecap="round"/>

    <g stroke="#ef4e55">
      <use href="#small-key" x="30" y="31"/>
      <use href="#small-key" x="55" y="31"/>
      <use href="#small-key" x="80" y="31"/>
      <use href="#key" x="28" y="58"/>
      <use href="#key" x="28" y="85"/>
      <use href="#key" x="28" y="112"/>
      <use href="#key" x="28" y="139"/>
      <use href="#key" x="57" y="58"/>
      <use href="#key" x="57" y="85"/>
      <use href="#key" x="57" y="112"/>
      <use href="#key" x="57" y="139"/>
    </g>
    <g stroke="#f0aa2b">
      <use href="#small-key" x="110" y="31"/>
      <use href="#small-key" x="135" y="31"/>
      <use href="#key" x="86" y="58"/>
      <use href="#key" x="86" y="85"/>
      <use href="#key" x="86" y="112"/>
      <use href="#key" x="86" y="139"/>
      <use href="#key" x="115" y="58"/>
      <use href="#key" x="115" y="85"/>
      <use href="#key" x="115" y="112"/>
      <use href="#key" x="115" y="139"/>
    </g>
    <g stroke="#55d26b">
      <use href="#small-key" x="165" y="31"/>
      <use href="#small-key" x="190" y="31"/>
      <use href="#key" x="144" y="58"/>
      <use href="#key" x="144" y="85"/>
      <use href="#key" x="144" y="112"/>
      <use href="#key" x="144" y="139"/>
      <use href="#key" x="173" y="58"/>
      <use href="#key" x="173" y="85"/>
      <use href="#key" x="173" y="112"/>
      <use href="#key" x="173" y="139"/>
    </g>
    <g stroke="#37bfdc">
      <use href="#small-key" x="220" y="31"/>
      <use href="#small-key" x="245" y="31"/>
      <use href="#key" x="202" y="58"/>
      <use href="#key" x="202" y="85"/>
      <use href="#key" x="202" y="112"/>
      <use href="#key" x="202" y="139"/>
      <use href="#key" x="231" y="58"/>
      <use href="#key" x="231" y="85"/>
      <use href="#key" x="231" y="112"/>
      <use href="#key" x="231" y="139"/>
    </g>
    <g stroke="#4b82ed">
      <use href="#small-key" x="275" y="31"/>
      <use href="#small-key" x="300" y="31"/>
      <use href="#key" x="260" y="58"/>
      <use href="#key" x="260" y="85"/>
      <use href="#key" x="260" y="112"/>
      <use href="#key" x="260" y="139"/>
      <use href="#key" x="289" y="58"/>
      <use href="#key" x="289" y="85"/>
      <use href="#key" x="289" y="112"/>
    </g>
    <g stroke="#df50bf">
      <use href="#key" x="327" y="58"/>
      <use href="#key" x="356" y="58"/>
      <use href="#key" x="385" y="58"/>
      <use href="#key" x="327" y="85"/>
      <use href="#key" x="356" y="85"/>
      <use href="#key" x="385" y="85"/>
      <use href="#key" x="327" y="112"/>
      <use href="#key" x="356" y="112"/>
      <use href="#key" x="385" y="112"/>
      <use href="#key" x="327" y="139"/>
      <use href="#key" x="356" y="139"/>
      <use href="#key" x="385" y="139"/>
    </g>

    <rect x="144" y="171" width="112" height="18" rx="4" fill="#111318" stroke="#c8c9cc" stroke-width="2.5"/>
    <rect x="262" y="171" width="25" height="18" rx="4" fill="#111318" stroke="#4b82ed" stroke-width="2.5"/>
    <rect x="292" y="171" width="25" height="18" rx="4" fill="#111318" stroke="#4b82ed" stroke-width="2.5"/>
    <rect x="329" y="29" width="59" height="18" rx="5" fill="#d8d9db" stroke="#df50bf" stroke-width="3"/>
    <path d="M334 41H383" stroke="#4a4c50" stroke-width="3" stroke-linecap="round"/>
    <text x="297" y="158" fill="#91949a" font-family="sans-serif" font-size="18" font-style="italic" font-weight="700">msi</text>

    <path d="M201 239 220 230 239 239 235 266Q232 281 220 288 208 281 205 266Z" fill="none" stroke="#777b82" stroke-width="4"/>
    <path d="m211 254 9-7 9 7-5 6 5 6-9 9-9-9 5-6Z" fill="#777b82"/>
  </g>
</svg>
